#define close_width  10
#define close_height 10
static unsigned char close_bits[] = {
 0xfc,0xfc,0x02,0xfd,0x01,0xfe,0x01,0xfe,0x01,0xfe,0x01,0xfe,
 0x01,0xfe,0x01,0xfe,0x02,0xfd,0xfc,0xfc};
